<?xml version="1.0" standalone="no"?>
<!DOCTYPE svg PUBLIC "-//W3C//DTD SVG 20010904//EN"
 "http://www.w3.org/TR/2001/REC-SVG-20010904/DTD/svg10.dtd">
<svg version="1.0" xmlns="http://www.w3.org/2000/svg"
 width="836.000000pt" height="836.000000pt" viewBox="0 0 836.000000 836.000000"
 preserveAspectRatio="xMidYMid meet">
<metadata>
Created by potrace 1.11, written by Peter Selinger 2001-2013
</metadata>
<g transform="translate(0.000000,836.000000) scale(0.100000,-0.100000)"
fill="#000000" stroke="none">
<path d="M4403 8168 c-13 -6 -23 -17 -23 -24 0 -10 -10 -13 -35 -9 -20 2 -48
-1 -63 -7 -15 -6 -46 -10 -69 -9 -36 2 -48 -2 -73 -27 -18 -19 -28 -37 -25
-50 3 -17 -2 -20 -30 -20 -18 0 -42 -5 -53 -11 -24 -13 -36 -55 -22 -81 13
-25 13 -30 -5 -30 -9 0 -21 -11 -27 -25 -6 -14 -19 -26 -30 -26 -10 -1 -22 -2
-28 -3 -19 -2 -34 -27 -35 -59 0 -31 -4 -37 -23 -37 -4 0 -8 19 -9 42 -1 55
-28 78 -92 78 -35 0 -51 -5 -64 -20 -16 -19 -19 -19 -33 -5 -8 8 -31 15 -50
15 -23 0 -34 5 -34 14 0 8 -10 27 -22 41 -21 24 -48 33 -106 34 -16 1 -23 7
-21 19 8 85 -16 117 -90 121 -39 1 -54 -3 -77 -23 -26 -21 -32 -22 -49 -10
-23 17 -88 18 -116 2 -17 -11 -23 -10 -38 8 -25 31 -55 44 -100 44 -63 0 -99
-40 -110 -121 -1 -3 -13 -5 -28 -3 -19 2 -34 -6 -55 -28 -15 -16 -28 -34 -28
-38 0 -5 -9 -6 -19 -3 -21 5 -66 -32 -56 -46 2 -5 -2 -14 -9 -20 -18 -15 -25
-4 -30 49 -2 23 -10 48 -18 56 -21 21 -94 26 -135 9 -23 -10 -55 -14 -86 -11
-77 7 -120 -24 -111 -82 3 -16 0 -21 -7 -16 -7 4 -28 9 -48 11 -35 4 -63 -12
-73 -42 -2 -5 -22 -10 -46 -10 -36 0 -48 -5 -69 -29 -16 -18 -23 -37 -20 -52
3 -16 -3 -25 -20 -33 -26 -12 -32 -57 -10 -80 10 -11 9 -13 -3 -9 -8 3 -26 1
-39 -4 -20 -7 -29 -4 -53 19 -15 14 -28 24 -28 20 0 -4 -10 -3 -23 2 -29 11
-131 -20 -162 -49 -18 -17 -27 -20 -43 -11 -73 39 -139 3 -134 -73 2 -23 -1
-27 -15 -21 -21 8 -21 8 -51 6 -14 -1 -30 -13 -41 -32 -18 -29 -18 -34 -4 -55
l15 -24 -33 14 c-53 21 -86 3 -79 -43 1 -10 -6 -12 -25 -7 -33 9 -75 -16 -75
-44 0 -25 -1 -25 -59 5 -41 20 -54 23 -83 15 -46 -13 -65 -51 -38 -75 15 -13
17 -22 10 -36 -26 -47 1 -109 46 -109 10 0 26 -5 34 -10 13 -8 12 -10 -3 -10
-9 0 -26 -9 -37 -20 -16 -16 -18 -24 -9 -48 11 -33 46 -44 121 -36 l43 4 -45
-22 c-25 -12 -56 -23 -70 -24 -44 -4 -70 -13 -104 -34 -46 -28 -51 -54 -17
-83 l28 -23 -78 0 c-43 0 -81 -2 -84 -6 -13 -13 -23 -78 -13 -84 5 -3 0 -15
-11 -26 -25 -22 -21 -74 6 -93 15 -11 13 -14 -13 -26 -28 -14 -33 -30 -23 -69
2 -8 0 -14 -6 -15 -31 -2 -51 -50 -31 -77 19 -26 79 -58 109 -58 23 0 27 -3
22 -22 -3 -13 -1 -29 3 -36 11 -16 80 -41 102 -37 11 2 16 -4 16 -18 -1 -23
52 -57 94 -60 11 -1 19 -6 16 -12 -2 -5 1 -18 6 -27 7 -15 4 -18 -14 -19 -13
-1 -26 -1 -30 0 -5 0 -8 -4 -8 -10 0 -5 -4 -8 -10 -4 -5 3 -14 -12 -20 -34
-12 -45 -40 -58 -75 -35 -12 8 -42 17 -66 20 -24 3 -58 15 -75 25 -17 10 -52
20 -77 20 -40 2 -50 -2 -71 -26 -14 -16 -23 -31 -21 -35 10 -17 -17 -35 -58
-39 -4 -1 -13 -14 -18 -31 -9 -25 -15 -29 -34 -24 -30 7 -78 -36 -68 -62 5
-14 3 -15 -15 -5 -36 19 -80 13 -97 -12 -32 -50 -27 -127 9 -127 9 0 13 -15
12 -50 -1 -35 4 -54 14 -60 8 -5 13 -10 10 -11 -3 0 -13 -2 -22 -4 -10 -2 -18
1 -18 6 0 13 -42 38 -70 42 -14 3 -37 -4 -53 -16 -25 -17 -28 -25 -25 -63 3
-41 2 -43 -20 -39 -12 2 -36 -1 -52 -7 -42 -14 -49 -49 -21 -99 13 -22 19 -38
14 -37 -20 6 -73 -13 -81 -29 -22 -41 35 -93 102 -93 33 0 57 -10 50 -21 -3
-5 -1 -9 5 -9 5 0 -3 -13 -19 -29 -22 -22 -41 -30 -80 -33 -34 -3 -55 -11 -64
-24 -19 -26 -14 -94 9 -110 10 -8 14 -14 8 -14 -22 0 -73 -58 -73 -84 0 -48
73 -85 129 -65 18 7 18 6 6 -18 -9 -17 -10 -34 -4 -55 11 -41 13 -42 65 -44
28 -1 50 -8 57 -17 16 -21 54 -34 93 -32 l32 1 -13 -36 c-21 -58 3 -90 72 -95
11 -1 32 -14 45 -29 13 -14 35 -27 51 -28 18 -2 27 -8 27 -19 0 -52 75 -80
134 -50 40 21 54 16 52 -19 -1 -23 3 -25 54 -31 57 -6 60 -8 22 -15 -28 -5
-71 -35 -72 -50 0 -12 6 -14 83 -17 31 -1 57 -3 57 -5 0 -2 -20 -12 -44 -23
-40 -17 -56 -35 -56 -61 0 -5 12 -7 27 -4 16 3 46 8 68 10 l40 6 -30 -17 c-38
-20 -47 -34 -33 -51 12 -14 96 -13 160 2 34 8 35 2 4 -27 -33 -31 -42 -64 -19
-71 10 -3 27 -4 38 -2 11 2 43 7 70 10 28 4 62 9 77 11 21 4 25 2 21 -13 -7
-29 33 -42 86 -26 43 12 43 12 39 -11 -3 -13 -2 -28 1 -34 17 -27 127 -14 138
17 4 10 12 6 28 -14 27 -34 79 -36 102 -5 11 17 22 20 54 17 22 -2 42 -6 45
-8 8 -9 97 14 112 28 7 8 17 14 22 14 5 0 12 10 16 22 l7 23 8 -23 c7 -19 15
-22 45 -20 19 1 38 6 40 10 7 11 52 10 59 -2 3 -5 3 -10 -2 -11 -70 -6 -101
-16 -113 -39 -9 -16 -5 -22 22 -37 18 -9 41 -18 51 -19 34 -3 37 -4 37 -14 0
-5 -8 -10 -18 -10 -17 0 -88 -34 -106 -51 -6 -5 -3 -16 8 -28 15 -16 27 -18
69 -14 29 3 59 9 68 14 31 16 28 -4 -4 -25 -51 -35 -46 -88 9 -89 16 0 47 3
69 7 106 20 102 20 82 -1 -24 -27 -21 -40 10 -50 20 -7 37 -5 64 9 50 24 69
23 62 -2 -10 -38 14 -52 81 -45 34 3 70 7 81 9 16 3 24 -4 34 -26 21 -46 97
-122 115 -115 20 8 20 -6 0 -45 -25 -48 -6 -71 77 -98 38 -12 73 -19 78 -16 5
3 17 -11 26 -32 10 -20 21 -39 24 -42 3 -3 12 -16 19 -30 7 -14 25 -39 40 -57
15 -17 34 -39 43 -50 21 -25 97 -93 103 -93 3 0 17 -11 32 -25 14 -13 30 -22
35 -19 5 3 9 1 9 -5 0 -5 48 -33 106 -63 62 -31 113 -63 123 -78 9 -13 23 -32
31 -41 8 -9 27 -31 42 -50 15 -19 39 -48 53 -65 14 -18 25 -35 25 -38 0 -3 8
-14 18 -25 9 -10 55 -71 102 -135 47 -65 98 -134 113 -154 41 -52 136 -207
168 -272 40 -84 95 -227 106 -280 6 -28 7 -35 17 -70 3 -14 8 -41 10 -60 3
-19 5 -35 6 -35 8 0 12 -214 5 -265 -3 -19 -6 -48 -9 -65 -2 -16 -9 -57 -17
-90 -7 -33 -13 -62 -14 -65 0 -3 -3 -9 -7 -15 -3 -5 -11 -30 -18 -55 -7 -25
-30 -83 -53 -130 -41 -85 -43 -92 -46 -109 0 -5 -7 -16 -13 -23 -7 -7 -23 -34
-35 -60 -13 -27 -27 -48 -33 -48 -5 0 -10 -6 -10 -13 0 -12 -20 -37 -53 -63
-45 -38 -175 -116 -199 -121 -35 -7 -37 -20 -2 -21 14 0 30 -4 36 -10 8 -8 15
-7 25 6 14 16 14 16 9 -2 -6 -16 -4 -17 9 -6 9 7 15 8 15 2 0 -5 16 -9 35 -8
19 1 35 -3 36 -9 0 -5 4 -1 9 10 5 11 9 15 9 10 1 -6 10 -11 21 -12 13 -1 18
2 14 9 -5 7 -2 8 6 3 10 -6 5 -15 -20 -36 -18 -15 -36 -27 -39 -27 -10 3 -81
-43 -81 -52 0 -4 7 -13 16 -20 12 -11 15 -11 12 1 -2 9 5 13 20 12 12 -2 22 2
22 8 0 5 4 8 9 5 5 -3 14 1 21 9 13 15 35 10 25 -6 -10 -15 2 -10 21 8 17 17
17 17 12 -4 -3 -13 -1 -26 4 -30 7 -3 8 -1 4 5 -4 7 -3 12 3 12 6 0 8 8 5 18
-5 16 -5 16 9 -1 13 -16 15 -16 21 -1 5 12 9 14 20 5 7 -6 17 -7 21 -3 5 4 6
2 2 -3 -7 -13 48 -13 60 -1 4 5 2 6 -4 2 -7 -4 -13 -2 -13 4 0 6 10 8 28 4 40
-10 44 -14 30 -32 -12 -15 -11 -16 5 -3 12 9 14 17 7 26 -5 6 -7 15 -4 18 4 4
-3 4 -15 2 -12 -2 -19 0 -16 6 4 5 11 7 16 4 5 -4 9 -1 9 5 0 7 8 9 21 5 16
-6 20 -4 14 6 -5 8 0 7 11 -3 11 -9 31 -15 46 -14 15 2 26 0 23 -3 -2 -4 0
-13 6 -21 7 -12 9 -12 9 3 0 10 5 15 10 12 6 -4 8 -11 5 -16 -4 -5 -1 -17 5
-26 10 -16 10 -15 5 4 -6 21 -3 22 37 17 24 -2 49 -7 56 -9 6 -2 12 1 12 8 0
8 4 6 10 -3 6 -10 10 -11 10 -2 0 14 21 12 32 -3 5 -6 8 -5 8 3 0 7 6 10 13 7
6 -4 1 3 -12 15 -13 11 -31 18 -38 16 -8 -3 -11 -2 -8 3 3 5 1 12 -5 16 -5 3
-10 1 -10 -4 0 -6 -5 -11 -11 -11 -8 0 -9 4 0 13 6 8 9 16 6 19 -3 2 2 5 9 5
8 0 14 -5 13 -10 -1 -5 4 -12 12 -15 8 -3 11 0 7 7 -5 7 -1 9 9 4 13 -5 14 -7
3 -14 -7 -5 -8 -9 -3 -10 6 -1 23 -3 39 -5 16 -2 32 -7 35 -11 3 -4 11 -9 16
-10 34 -8 90 -33 93 -41 2 -6 10 -8 18 -5 8 3 14 0 14 -5 0 -6 9 -10 19 -9 13
1 18 7 16 19 -2 10 0 18 6 18 5 0 9 -8 9 -17 0 -9 3 -14 6 -10 4 3 3 14 -1 24
-11 25 -14 83 -4 83 12 0 39 -42 33 -52 -3 -4 -9 -6 -14 -3 -5 3 -12 1 -15 -5
-4 -6 -1 -9 6 -8 7 2 16 -8 20 -22 9 -25 9 -25 5 3 -2 18 1 27 11 27 8 0 11
-5 7 -12 -5 -10 -4 -10 6 -1 13 12 52 0 78 -24 8 -7 18 -11 23 -8 5 4 9 2 9
-2 0 -5 9 -9 21 -10 18 -2 19 0 7 15 -7 9 -17 20 -23 24 -5 4 -10 12 -10 18 0
6 -6 14 -13 19 -22 14 9 30 37 20 18 -7 21 -12 12 -23 -9 -10 -8 -15 4 -20 9
-3 13 -2 10 3 -3 5 0 13 6 17 8 4 9 3 5 -4 -4 -7 -2 -12 4 -12 6 0 8 -5 4 -12
-5 -7 -3 -8 5 -4 7 5 10 15 6 23 -4 13 -3 14 10 3 8 -7 15 -9 15 -4 0 4 5 3
11 -3 6 -6 18 -9 25 -6 8 3 14 1 14 -5 0 -5 7 -13 16 -16 14 -5 15 -4 5 8 -10
12 -9 14 6 11 10 -1 17 -8 15 -16 -2 -9 0 -10 11 -1 10 9 16 9 25 0 8 -8 12
-8 12 -1 0 15 53 3 68 -16 11 -14 11 -14 7 0 -5 12 1 15 27 14 18 0 39 -5 47
-9 10 -7 12 -5 6 3 -7 12 5 12 81 -3 7 -1 20 -8 30 -16 11 -9 15 -10 10 -2 -9
15 -1 15 27 0 19 -9 20 -9 10 3 -6 8 -11 17 -10 21 1 3 -2 10 -7 15 -5 5 -6 2
-2 -7 4 -8 0 -6 -8 4 -9 11 -16 16 -16 12 0 -14 -34 12 -36 28 -3 19 12 22 19
4 3 -7 4 -3 4 10 -1 25 -8 27 -25 10 -9 -9 -12 -9 -12 1 0 7 -5 9 -11 6 -6 -5
-4 -12 8 -21 17 -12 17 -13 1 -14 -10 0 -18 4 -18 8 0 4 -8 8 -17 9 -42 3 -77
13 -87 24 -8 8 -3 8 13 -1 21 -11 23 -10 17 5 -6 16 -5 16 18 1 33 -21 42 -20
25 2 -13 15 -12 16 3 4 13 -10 17 -10 21 0 4 10 6 10 6 -1 1 -11 4 -11 18 0 9
8 14 9 10 3 -4 -7 5 -11 23 -11 16 0 27 3 25 7 -2 3 8 7 23 8 15 0 59 3 99 5
39 2 70 0 68 -3 -2 -4 9 -6 25 -6 21 0 27 3 22 15 -3 11 3 8 20 -7 21 -19 26
-21 31 -8 4 9 13 13 22 10 8 -3 15 -2 15 4 0 6 -8 9 -17 7 -10 -1 -23 2 -30 7
-7 5 -17 7 -23 3 -5 -3 -10 0 -10 7 0 9 -3 9 -10 -2 -9 -13 -10 -13 -11 0 -1
8 -1 19 0 23 1 5 -3 6 -9 2 -6 -3 -8 -10 -5 -15 9 -15 -34 -2 -51 14 -20 20
-30 21 -14 1 11 -13 10 -14 -6 -9 -10 4 -24 11 -30 15 -6 5 -14 6 -17 2 -4 -3
-7 -1 -7 6 0 7 -4 10 -9 6 -5 -3 -12 -1 -16 5 -4 6 -10 8 -15 5 -4 -3 -13 2
-20 10 -7 8 -16 12 -21 9 -5 -3 -12 2 -15 10 -3 9 -10 14 -14 11 -4 -3 -10 5
-13 16 -3 12 -10 18 -16 15 -11 -7 -106 43 -138 74 -13 12 -23 29 -23 36 0 8
-7 26 -16 39 -15 23 -58 166 -70 230 -3 17 -10 48 -16 70 -6 22 -12 56 -14 75
-2 19 -6 48 -10 65 -10 44 -13 68 -29 240 -6 60 -6 292 -1 355 8 83 18 173 22
195 3 11 7 36 10 55 3 19 10 53 16 75 5 22 12 51 15 65 7 38 73 237 89 268 8
15 14 30 14 34 0 14 82 183 92 189 5 3 9 8 7 10 -2 4 30 66 54 104 37 59 111
171 116 175 3 3 26 32 51 65 56 76 48 67 133 160 133 148 339 340 477 447 19
14 58 45 87 67 29 23 57 41 63 41 5 0 10 4 10 10 0 5 19 15 43 21 23 7 46 16
51 21 6 4 16 8 22 8 7 0 25 5 41 12 15 6 33 12 38 14 74 17 271 123 282 149 3
8 8 13 13 10 7 -4 112 99 163 160 l25 29 0 -28 c0 -16 6 -33 15 -37 8 -5 18
-20 21 -34 4 -17 14 -25 29 -26 36 -2 41 -3 67 -18 14 -8 25 -14 25 -14 0 0
10 5 23 12 19 10 22 9 22 -9 0 -15 8 -22 30 -26 16 -4 27 -10 25 -14 -8 -12
50 -50 75 -50 13 0 24 8 27 20 3 11 10 20 16 20 6 0 18 7 27 15 15 13 17 11
29 -20 10 -29 17 -35 42 -35 16 0 29 -4 29 -10 0 -5 11 -10 24 -10 25 0 60 36
50 52 -3 4 2 5 10 2 9 -3 16 -10 16 -14 0 -13 38 -18 50 -6 8 8 13 8 18 0 20
-31 101 -21 88 11 -2 7 2 16 11 19 12 5 13 9 3 21 -7 8 -11 15 -9 16 2 0 19 2
37 3 18 2 39 9 47 16 16 13 20 45 8 53 -5 2 -2 2 5 1 12 -3 16 8 12 35 -1 11
2 12 12 5 21 -16 64 -16 77 -1 6 8 20 13 30 10 9 -2 24 3 31 12 12 15 12 19
-5 32 -19 15 -19 15 7 9 20 -5 38 1 67 21 22 16 43 36 46 45 6 17 8 16 26 -1
20 -18 53 -18 65 0 3 5 15 9 27 9 13 0 40 9 61 20 21 10 52 21 68 24 30 5 62
25 54 34 -3 3 6 18 19 34 14 16 25 41 25 54 0 20 4 24 18 20 35 -11 84 52 57
74 -13 10 -13 16 0 41 8 15 15 35 15 43 0 22 -40 46 -76 46 -18 0 -38 8 -49
20 -16 18 -28 20 -87 17 -37 -2 -68 -2 -68 0 0 2 7 17 15 33 8 16 12 35 9 43
-4 10 2 14 19 12 32 -4 50 8 54 36 2 12 15 33 29 46 17 16 24 31 21 43 -3 13
0 20 9 20 8 0 23 9 34 20 21 21 18 42 -9 73 -10 12 -12 20 -5 25 17 11 8 45
-17 65 -12 10 -23 29 -24 42 -1 39 -28 58 -82 59 -26 1 -57 7 -68 13 -25 14
-35 14 -60 0 -25 -13 -181 -12 -215 2 -25 10 -25 10 8 12 17 1 35 2 40 4 54
15 63 20 68 40 8 31 -4 65 -22 66 -27 3 -32 4 -39 10 -3 4 7 13 24 20 16 7 27
17 25 21 -3 4 -1 8 4 8 15 0 5 47 -17 83 -11 19 -18 37 -14 41 28 27 -11 66
-65 66 -26 0 -43 -9 -69 -35 -35 -35 -59 -41 -32 -9 18 21 13 54 -12 75 -10 9
-17 18 -14 21 20 20 -2 108 -28 108 -4 0 -1 10 7 22 32 45 12 110 -38 128 -55
21 -61 26 -59 58 3 46 -38 77 -107 81 -28 2 -45 18 -34 33 12 15 12 28 0 46
-4 7 -3 18 2 25 6 7 12 27 15 46 5 27 1 38 -20 57 -14 13 -32 24 -39 24 -8 0
-11 10 -9 29 5 35 -26 68 -70 74 -26 3 -30 8 -31 35 -2 72 -57 96 -231 101
-13 1 -23 7 -23 15 0 35 -79 60 -135 43 -14 -5 -29 1 -48 19 -23 21 -39 26
-87 27 -62 2 -64 3 -28 21 13 7 23 21 24 31 0 26 -33 75 -52 75 -8 0 -14 5
-14 10 0 6 6 10 13 10 13 0 47 31 47 42 0 11 -66 47 -91 51 -16 3 -25 11 -27
28 -2 13 -9 30 -14 37 -7 8 -7 12 1 13 6 1 16 3 21 4 6 1 14 3 20 4 5 0 17 12
25 25 12 18 14 32 6 65 -8 38 -7 44 20 70 16 16 30 37 30 45 1 9 2 22 3 29 4
20 -25 71 -53 94 -15 13 -40 22 -58 23 -18 0 -33 5 -33 11 0 6 -7 26 -16 44
-16 35 -53 55 -91 49 -20 -3 -23 1 -24 29 -1 17 -1 37 0 43 1 6 -12 25 -27 42
-24 25 -35 30 -65 27 -32 -3 -39 1 -55 30 -26 43 -66 53 -104 25 -15 -11 -28
-16 -28 -11 0 13 -36 32 -72 38 -23 3 -36 -3 -62 -29 -18 -18 -45 -34 -59 -36
-25 -3 -25 -3 -13 33 16 47 9 89 -21 121 -23 25 -28 26 -86 20 -34 -3 -69 -6
-77 -6 -8 0 -34 1 -57 1 -75 1 -127 -59 -98 -114 11 -22 11 -25 -4 -22 -9 2
-31 4 -48 4 -23 1 -33 6 -33 17 0 8 -13 29 -30 45 -24 24 -36 30 -62 26 -53
-6 -67 -17 -74 -53 -4 -24 -11 -34 -22 -32 -18 3 -24 47 -10 65 12 14 16 148
6 159 -4 3 -31 8 -60 10 -29 1 -54 7 -54 13 -1 6 -2 22 -3 36 -2 54 -98 77
-159 39 -20 -13 -25 -13 -44 1 -28 19 -92 20 -111 0 -20 -19 -27 -9 -27 40 0
71 -59 115 -136 100 -29 -5 -39 -2 -54 15 -22 25 -85 32 -123 13 -26 -13 -29
-12 -45 7 -21 26 -95 36 -129 18z m1890 -3809 c21 -25 25 -35 16 -45 -6 -8 -8
-14 -3 -14 5 0 4 -4 -1 -8 -6 -4 -25 -25 -42 -47 -17 -22 -57 -58 -89 -79 -33
-22 -64 -45 -69 -52 -15 -17 -152 -104 -164 -104 -6 0 -11 -4 -11 -9 0 -5 -13
-12 -30 -16 -16 -4 -32 -11 -35 -16 -4 -5 -13 -9 -21 -9 -8 0 -31 -7 -52 -16
-20 -9 -48 -18 -62 -19 -14 -1 -25 -3 -25 -5 0 -1 -12 -4 -27 -6 -16 -3 -28
-2 -28 1 0 20 74 155 84 155 17 0 49 36 42 48 -3 5 16 7 44 4 42 -4 51 -2 57
14 6 15 18 19 58 19 47 0 51 2 64 32 8 17 23 34 34 37 14 3 18 11 14 25 -3 12
-1 21 4 21 33 0 59 18 59 40 0 17 7 20 41 20 33 0 46 6 67 30 15 17 31 30 37
30 6 0 23 -14 38 -31z m166 -85 c-18 -19 -20 -27 -11 -33 14 -9 74 -7 90 3 6
3 10 -8 10 -29 0 -31 -4 -36 -51 -60 -28 -14 -58 -25 -68 -25 -16 0 -17 5 -4
75 2 11 4 37 4 57 1 30 5 37 24 40 32 5 33 1 6 -28z m-909 -228 c0 -8 -3 -16
-7 -18 -5 -1 -28 -43 -53 -91 -51 -99 -152 -239 -255 -353 -70 -77 -235 -244
-242 -244 -3 0 -1 22 12 135 4 28 8 67 10 88 2 30 12 46 42 72 36 31 37 34 21
52 -16 18 -16 18 22 15 28 -3 47 2 70 18 35 25 37 45 10 80 -24 31 -25 44 -3
36 9 -4 37 -9 63 -12 52 -6 87 15 84 52 -1 17 8 24 40 34 43 12 96 55 96 77 0
7 -12 19 -27 27 -17 9 -22 16 -13 16 31 3 63 11 79 20 24 14 51 12 51 -4z
m-740 -430 c0 -9 -17 -79 -56 -229 -9 -32 -17 -66 -19 -75 -1 -9 -8 -35 -13
-57 -6 -22 -13 -51 -15 -65 -3 -14 -10 -43 -15 -65 -6 -22 -13 -51 -16 -65 -3
-14 -10 -42 -15 -62 -5 -21 -7 -38 -4 -38 3 0 0 -7 -7 -15 -7 -8 -10 -15 -7
-15 3 0 0 -21 -8 -47 -8 -25 -14 -49 -13 -52 0 -3 -1 -8 -2 -11 -1 -3 -3 -12
-5 -20 -11 -53 -17 -79 -22 -105 -8 -46 -11 -60 -13 -60 -1 0 -4 -13 -14 -65
-2 -14 -5 -25 -6 -25 -2 0 -6 -20 -14 -65 -4 -19 -9 -42 -11 -50 -2 -8 -6 -26
-9 -40 -3 -14 -10 -47 -16 -75 -5 -27 -13 -61 -15 -75 -12 -61 -16 -70 -29
-70 -15 0 -29 12 -56 47 -22 29 -29 41 -159 299 -119 236 -144 273 -230 346
l-44 37 33 68 c19 38 59 113 90 168 31 55 70 123 85 150 37 66 80 154 89 183
6 18 15 22 45 22 21 0 58 10 84 23 30 16 51 21 61 15 17 -9 119 -13 153 -5 32
8 83 36 84 47 1 6 2 16 3 23 1 6 -1 17 -5 22 -5 7 12 11 52 10 32 0 59 -4 59
-9z m-1219 -130 c-11 -13 -8 -62 4 -75 12 -12 100 -4 131 12 l31 16 13 -55 c7
-30 17 -57 22 -60 4 -3 -1 -22 -12 -43 -10 -21 -16 -41 -13 -45 4 -3 2 -6 -4
-6 -5 0 -20 -22 -33 -50 -13 -27 -27 -50 -30 -50 -10 0 -68 24 -148 61 -35 16
-66 29 -69 29 -3 0 -18 9 -34 21 -16 11 -29 18 -29 15 0 -3 -21 7 -47 23 -27
15 -59 34 -73 42 -53 31 -54 36 -9 76 49 45 60 50 130 57 30 3 81 14 114 25
73 24 70 24 56 7z m1854 -2966 c3 -5 1 -10 -4 -10 -6 0 -11 5 -11 10 0 6 2 10
4 10 3 0 8 -4 11 -10z m60 0 c3 -5 2 -10 -4 -10 -5 0 -13 5 -16 10 -3 6 -2 10
4 10 5 0 13 -4 16 -10z"/>
<path d="M5229 648 c-12 -8 -11 -9 2 -5 9 3 26 -1 37 -9 17 -12 21 -12 26 2 3
8 2 12 -4 9 -5 -3 -18 -2 -28 4 -12 6 -23 6 -33 -1z"/>
<path d="M5310 635 c0 -8 4 -15 10 -15 5 0 7 7 4 15 -4 8 -8 15 -10 15 -2 0
-4 -7 -4 -15z"/>
<path d="M5240 626 c0 -2 7 -9 15 -16 13 -11 14 -10 9 4 -5 14 -24 23 -24 12z"/>
<path d="M5290 600 c0 -5 13 -7 29 -5 20 3 29 0 27 -8 -1 -7 -1 -9 1 -5 3 4 4
11 4 15 -1 10 -61 13 -61 3z"/>
<path d="M5411 571 c-8 -5 -9 -11 -3 -15 5 -3 12 1 16 9 6 17 6 18 -13 6z"/>
<path d="M3490 531 c0 -6 4 -13 10 -16 6 -3 7 1 4 9 -7 18 -14 21 -14 7z"/>
<path d="M3450 505 c0 -7 30 -13 34 -7 3 4 -4 9 -15 9 -10 1 -19 0 -19 -2z"/>
<path d="M5303 502 c-8 -5 -9 -13 -3 -22 8 -13 10 -12 10 3 0 9 5 17 11 17 5
0 7 -5 3 -12 -4 -7 -3 -8 5 -4 6 4 9 12 6 17 -7 11 -16 11 -32 1z"/>
<path d="M3619 498 c-5 -9 -5 -48 -1 -43 6 6 11 45 5 45 -2 0 -4 -1 -4 -2z"/>
<path d="M3673 485 c0 -8 4 -12 9 -9 5 3 6 10 3 15 -9 13 -12 11 -12 -6z"/>
<path d="M5228 483 c-6 -8 -8 -16 -4 -20 3 -3 6 -1 6 7 0 10 3 10 18 -1 9 -7
14 -9 10 -5 -4 5 -1 14 8 20 13 10 12 12 -6 12 -12 0 -26 -6 -32 -13z"/>
<path d="M5356 487 c3 -10 9 -15 12 -12 3 3 0 11 -7 18 -10 9 -11 8 -5 -6z"/>
<path d="M3575 460 c3 -5 8 -10 11 -10 2 0 4 5 4 10 0 6 -5 10 -11 10 -5 0 -7
-4 -4 -10z"/>
<path d="M4540 461 c0 -5 7 -11 14 -14 10 -4 13 -1 9 9 -6 15 -23 19 -23 5z"/>
<path d="M4700 460 c0 -15 21 -23 32 -12 6 6 2 11 -11 15 -12 3 -21 1 -21 -3z"/>
<path d="M5330 459 c0 -5 5 -7 10 -4 6 3 10 8 10 11 0 2 -4 4 -10 4 -5 0 -10
-5 -10 -11z"/>
<path d="M3987 443 c4 -9 9 -10 18 -3 6 5 15 8 18 5 4 -3 5 -2 2 2 -10 13 -43
10 -38 -4z"/>
<path d="M4045 440 c-3 -5 -1 -10 4 -10 6 0 11 5 11 10 0 6 -2 10 -4 10 -3 0
-8 -4 -11 -10z"/>
<path d="M4317 439 c7 -7 15 -10 18 -7 3 3 -2 9 -12 12 -14 6 -15 5 -6 -5z"/>
<path d="M5279 448 c-5 -18 -6 -38 -1 -34 7 8 12 36 6 36 -2 0 -4 -1 -5 -2z"/>
<path d="M3725 419 c-4 -6 -5 -12 -2 -15 2 -3 7 2 10 11 7 17 1 20 -8 4z"/>
<path d="M3830 420 c0 -5 5 -10 11 -10 5 0 7 5 4 10 -3 6 -8 10 -11 10 -2 0
-4 -4 -4 -10z"/>
<path d="M4733 410 c14 -11 28 -20 32 -20 4 0 -4 9 -18 20 -14 11 -28 20 -32
20 -4 0 4 -9 18 -20z"/>
<path d="M4795 410 c-10 -11 -16 -22 -14 -24 2 -2 12 7 22 20 22 29 17 32 -8
4z"/>
<path d="M4310 410 c-9 -6 -10 -10 -3 -10 6 0 15 5 18 10 8 12 4 12 -15 0z"/>
<path d="M4337 406 c-4 -10 -3 -15 3 -11 6 3 10 1 10 -6 0 -7 3 -10 6 -6 3 3
2 13 -4 22 -8 16 -9 16 -15 1z"/>
<path d="M3595 400 c3 -5 8 -10 11 -10 2 0 4 5 4 10 0 6 -5 10 -11 10 -5 0 -7
-4 -4 -10z"/>
<path d="M4010 402 c0 -4 10 -9 22 -9 18 -2 20 0 8 7 -18 12 -30 13 -30 2z"/>
<path d="M4254 398 c-5 -7 -3 -8 6 -3 10 6 12 4 7 -8 -4 -11 -2 -14 9 -10 11
4 12 9 3 19 -14 17 -16 17 -25 2z"/>
<path d="M4388 403 c7 -3 16 -2 19 1 4 3 -2 6 -13 5 -11 0 -14 -3 -6 -6z"/>
<path d="M4600 395 c-19 -22 -8 -25 13 -3 9 10 13 18 8 18 -5 0 -14 -7 -21
-15z"/>
<path d="M4820 403 c0 -5 12 -9 27 -10 19 -1 22 1 12 8 -17 11 -39 12 -39 2z"/>
<path d="M5315 401 c-3 -5 -2 -12 3 -15 5 -3 9 1 9 9 0 17 -3 19 -12 6z"/>
<path d="M3734 382 c4 -3 14 -7 22 -8 9 -1 13 0 10 4 -4 3 -14 7 -22 8 -9 1
-13 0 -10 -4z"/>
<path d="M4615 379 c-5 -8 -5 -11 0 -7 4 4 13 0 20 -9 10 -13 13 -14 20 -2 5
8 5 11 0 7 -4 -4 -13 0 -20 9 -10 13 -13 14 -20 2z"/>
<path d="M4950 376 c7 -7 13 -7 20 0 6 6 3 10 -10 10 -13 0 -16 -4 -10 -10z"/>
<path d="M4153 365 c0 -8 4 -12 9 -9 5 3 6 10 3 15 -9 13 -12 11 -12 -6z"/>
<path d="M4232 366 c7 -8 15 -12 17 -11 5 6 -10 25 -20 25 -5 0 -4 -6 3 -14z"/>
<path d="M3836 353 c-6 -14 -5 -15 5 -6 7 7 10 15 7 18 -3 3 -9 -2 -12 -12z"/>
<path d="M4312 365 c3 -3 16 -8 28 -10 12 -2 20 -1 16 2 -4 4 -16 8 -28 10
-12 2 -19 1 -16 -2z"/>
<path d="M4393 353 c0 -9 4 -10 12 -3 7 5 15 7 18 3 4 -3 7 -1 7 5 0 6 -8 10
-18 9 -10 0 -19 -7 -19 -14z"/>
<path d="M4445 359 c-3 -4 2 -6 10 -5 21 3 28 13 10 13 -9 0 -18 -4 -20 -8z"/>
<path d="M4534 358 c-4 -7 -3 -10 1 -5 5 4 18 -1 29 -10 21 -18 21 -18 2 5
-22 26 -23 26 -32 10z"/>
<path d="M4786 358 c3 -5 9 -7 12 -4 3 3 12 0 21 -6 13 -10 14 -10 4 2 -15 16
-46 23 -37 8z"/>
<path d="M4913 355 c0 -8 4 -12 9 -9 4 3 8 9 8 15 0 5 -4 9 -8 9 -5 0 -9 -7
-9 -15z"/>
<path d="M4095 351 c-3 -5 -2 -12 3 -15 5 -3 9 1 9 9 0 17 -3 19 -12 6z"/>
<path d="M4873 345 c0 -8 4 -12 9 -9 5 3 6 10 3 15 -9 13 -12 11 -12 -6z"/>
<path d="M3910 345 c0 -7 30 -13 34 -7 3 4 -4 9 -15 9 -10 1 -19 0 -19 -2z"/>
<path d="M3975 340 c3 -5 8 -10 11 -10 2 0 4 5 4 10 0 6 -5 10 -11 10 -5 0 -7
-4 -4 -10z"/>
<path d="M4015 340 c3 -5 8 -10 11 -10 2 0 4 5 4 10 0 6 -5 10 -11 10 -5 0 -7
-4 -4 -10z"/>
<path d="M4160 340 c-9 -6 -10 -10 -3 -10 6 0 15 5 18 10 8 12 4 12 -15 0z"/>
<path d="M4333 325 c0 -8 4 -12 9 -9 5 3 6 10 3 15 -9 13 -12 11 -12 -6z"/>
<path d="M4536 327 c3 -10 9 -15 12 -12 3 3 0 11 -7 18 -10 9 -11 8 -5 -6z"/>
<path d="M4255 320 c3 -5 8 -10 11 -10 2 0 4 5 4 10 0 6 -5 10 -11 10 -5 0 -7
-4 -4 -10z"/>
<path d="M4733 311 c0 -11 5 -18 9 -15 4 3 5 11 1 19 -7 21 -12 19 -10 -4z"/>
<path d="M4135 301 c-3 -5 -2 -12 3 -15 5 -3 9 1 9 9 0 17 -3 19 -12 6z"/>
<path d="M4166 302 c-3 -5 1 -9 9 -9 8 0 12 4 9 9 -3 4 -7 8 -9 8 -2 0 -6 -4
-9 -8z"/>
<path d="M4216 302 c-3 -5 1 -9 9 -9 8 0 12 4 9 9 -3 4 -7 8 -9 8 -2 0 -6 -4
-9 -8z"/>
<path d="M4540 286 c0 -2 8 -10 18 -17 15 -13 16 -12 3 4 -13 16 -21 21 -21
13z"/>
</g>
</svg>
